<svg xmlns="http://www.w3.org/2000/svg" width="580" height="455" fill="none" viewBox="0 0 580 455">
  <path fill="#1E1E1E" fill-rule="evenodd" d="M98 221.898C98 350.643 199.855 455 325.509 455 451.145 455 553 350.643 553 221.901h-93.85c0 75.634-59.839 136.947-133.641 136.947-73.82 0-133.662-61.313-133.662-136.947L98 221.898Z" clip-rule="evenodd"/>
  <path fill="#2899F5" fill-rule="evenodd" d="M191.322 223.004c0-75.929 60.073-137.478 134.181-137.478 74.096 0 134.169 61.549 134.169 137.478h-268.35Z" clip-rule="evenodd"/>
  <path fill="#1E1E1E" fill-rule="evenodd" d="M146.088 148.123c14.233 0 25.784 11.841 25.784 26.417 0 14.576-11.551 26.417-25.784 26.417-14.229 0-25.784-11.841-25.784-26.417 0-14.576 11.555-26.417 25.784-26.417Zm358.536-.995c6.838 0 13.396 2.783 18.232 7.737 4.835 4.955 7.552 11.674 7.552 18.68s-2.717 13.726-7.552 18.68c-4.836 4.954-11.394 7.737-18.232 7.737-14.257 0-25.784-11.81-25.784-26.417 0-7.006 2.717-13.725 7.552-18.68 4.835-4.954 11.394-7.737 18.232-7.737ZM189.608 55.29c14.226 0 25.784 11.84 25.784 26.417 0 14.576-11.558 26.417-25.784 26.417-14.227 0-25.772-11.841-25.772-26.417 0-14.576 11.545-26.417 25.772-26.417Zm271.244-.373c14.227 0 25.784 11.84 25.784 26.417 0 14.576-11.557 26.417-25.784 26.417-14.226 0-25.783-11.841-25.783-26.417 0-14.576 11.557-26.417 25.783-26.417ZM274.967.28c14.227 0 25.784 11.84 25.784 26.417 0 14.576-11.557 26.417-25.784 26.417-14.226 0-25.784-11.841-25.784-26.417C249.183 12.12 260.741.28 274.967.28ZM375.281 0c14.226 0 25.783 11.841 25.783 26.417 0 14.576-11.557 26.417-25.783 26.417-14.227 0-25.784-11.84-25.784-26.417C349.497 11.841 361.054 0 375.281 0Z" clip-rule="evenodd"/>
</svg>
