<svg xmlns="http://www.w3.org/2000/svg" width="1359" height="1420" fill="none" viewBox="0 0 1359 1420">
  <path fill="#fff" fill-rule="evenodd" d="M0 692.125c0 401.565 304.006 727.065 679.048 727.065 374.982 0 678.992-325.5 678.992-727.056h-280.11c0 235.91-178.605 427.156-398.882 427.156-220.332 0-398.944-191.246-398.944-427.156L0 692.125Z" clip-rule="evenodd"/>
  <path fill="#2899F5" fill-rule="evenodd" d="M278.538 695.575c0-236.832 179.3-428.809 400.492-428.809 221.155 0 400.46 191.977 400.46 428.809H278.538Z" clip-rule="evenodd"/>
  <path fill="#fff" fill-rule="evenodd" d="M143.529 462.01c42.48 0 76.957 36.934 76.957 82.398s-34.477 82.398-76.957 82.398c-42.471 0-76.957-36.934-76.957-82.398s34.486-82.398 76.957-82.398Zm1070.121-3.102c20.41 0 39.99 8.681 54.42 24.134 14.43 15.453 22.54 36.411 22.54 58.264s-8.11 42.812-22.54 58.264c-14.43 15.453-34.01 24.134-54.42 24.134-42.55 0-76.95-36.837-76.95-82.398 0-21.853 8.1-42.811 22.54-58.264 14.43-15.453 34-24.134 54.41-24.134ZM273.423 172.454c42.462 0 76.956 36.934 76.956 82.398s-34.494 82.398-76.956 82.398-76.921-36.934-76.921-82.398 34.459-82.398 76.921-82.398Zm809.587-1.163c42.46 0 76.95 36.933 76.95 82.398 0 45.464-34.49 82.398-76.95 82.398s-76.96-36.934-76.96-82.398c0-45.465 34.5-82.398 76.96-82.398ZM528.195.872c42.462 0 76.956 36.934 76.956 82.398 0 45.465-34.494 82.398-76.956 82.398s-76.957-36.933-76.957-82.398c0-45.464 34.495-82.398 76.957-82.398ZM827.601 0c42.462 0 76.957 36.934 76.957 82.398s-34.495 82.398-76.957 82.398c-42.462 0-76.956-36.934-76.956-82.398S785.139 0 827.601 0Z" clip-rule="evenodd"/>
</svg>
