<svg xmlns="http://www.w3.org/2000/svg" width="3942" height="1420" fill="none" viewBox="0 0 3942 1420">
  <path fill="#fff" fill-rule="evenodd" d="M0 692.125c0 401.565 304.006 727.065 679.048 727.065 374.982 0 678.992-325.5 678.992-727.056h-280.11c0 235.91-178.605 427.156-398.882 427.156-220.332 0-398.944-191.246-398.944-427.156L0 692.125Z" clip-rule="evenodd"/>
  <path fill="#2899F5" fill-rule="evenodd" d="M278.538 695.575c0-236.832 179.3-428.809 400.492-428.809 221.155 0 400.46 191.977 400.46 428.809H278.538Z" clip-rule="evenodd"/>
  <path fill="#fff" fill-rule="evenodd" d="M143.529 462.01c42.48 0 76.957 36.934 76.957 82.398s-34.477 82.398-76.957 82.398c-42.471 0-76.957-36.934-76.957-82.398s34.486-82.398 76.957-82.398Zm1070.121-3.102c20.41 0 39.99 8.681 54.42 24.134 14.43 15.453 22.54 36.411 22.54 58.264s-8.11 42.812-22.54 58.264c-14.43 15.453-34.01 24.134-54.42 24.134-42.55 0-76.95-36.837-76.95-82.398 0-21.853 8.1-42.811 22.54-58.264 14.43-15.453 34-24.134 54.41-24.134ZM273.423 172.454c42.462 0 76.956 36.934 76.956 82.398s-34.494 82.398-76.956 82.398-76.921-36.934-76.921-82.398 34.459-82.398 76.921-82.398Zm809.587-1.163c42.46 0 76.95 36.933 76.95 82.398 0 45.464-34.49 82.398-76.95 82.398s-76.96-36.934-76.96-82.398c0-45.465 34.5-82.398 76.96-82.398ZM528.195.872c42.462 0 76.956 36.934 76.956 82.398 0 45.465-34.494 82.398-76.956 82.398s-76.957-36.933-76.957-82.398c0-45.464 34.495-82.398 76.957-82.398ZM827.601 0c42.462 0 76.957 36.934 76.957 82.398s-34.495 82.398-76.957 82.398c-42.462 0-76.956-36.934-76.956-82.398S785.139 0 827.601 0Z" clip-rule="evenodd"/>
  <g filter="url(#a)">
    <path fill="#2899F5" d="M1583.93 889.703c-36.45 0-72.1-9.422-106.93-28.265v-54.149c7.2 4.959 18.69 9.422 34.48 13.389 15.79 3.768 28.91 5.653 39.36 5.653 31.12 0 54.11-4.463 68.97-13.389 15.1-8.925 22.64-23.801 22.64-44.628 0-15.669-5.92-28.066-17.76-37.19-11.61-9.124-30.07-13.686-55.39-13.686-25.77 0-54.57 5.455-86.38 16.364l22.99-198.744h244.87l-24.03 73.487H1581.5l-14.63 62.182c6.27-3.372 15.55-6.148 27.86-8.33 12.31-2.38 23.69-3.571 34.14-3.571 17.41 0 33.44 1.984 48.07 5.951 14.86 3.768 28.44 9.719 40.75 17.851 12.31 7.934 21.94 18.942 28.91 33.025 7.2 13.884 10.8 30.248 10.8 49.091 0 39.273-14.4 69.917-43.19 91.934-28.57 22.016-71.99 33.025-130.28 33.025Zm370.05-56.529c11.14.793 20.66-2.182 28.56-8.926 8.13-6.744 12.19-15.174 12.19-25.289 0-4.166-1.05-7.934-3.14-11.306-1.85-3.372-5.34-6.645-10.45-9.818-4.87-3.174-9.75-5.951-14.62-8.331-4.88-2.578-11.96-6.149-21.25-10.711s-17.42-8.826-24.38-12.793c-13.24 9.124-19.98 20.926-20.21 35.405-.23 16.859 3.95 29.355 12.54 37.488 8.59 7.933 22.18 12.694 40.76 14.281Zm16.37-173.455c4.18 2.182 8.94 4.562 14.28 7.141 3.02-2.976 5.8-5.951 8.36-8.926 2.55-2.975 4.76-5.951 6.62-8.926 2.09-3.173 3.83-6.248 5.22-9.223 1.63-2.975 2.79-5.95 3.48-8.925.93-2.976 1.4-5.753 1.4-8.331 0-10.116-5.34-18.942-16.03-26.479-10.45-7.538-21.24-11.306-32.39-11.306-11.15 0-20.78 3.074-28.91 9.223-7.9 6.149-11.96 13.785-12.19 22.909 0 3.769.7 7.339 2.09 10.711 1.62 3.173 3.48 5.95 5.57 8.33 2.09 2.182 5.11 4.562 9.06 7.141 4.18 2.38 7.66 4.264 10.45 5.653 2.78 1.388 6.73 3.272 11.84 5.653 5.11 2.38 8.82 4.165 11.15 5.355ZM1953.98 890c-28.33 0-54.11-3.669-77.33-11.008-22.99-7.339-41.45-18.248-55.38-32.728-13.94-14.677-20.9-31.636-20.9-50.876 0-9.719 2.55-19.438 7.66-29.157 5.11-9.719 13.24-18.843 24.38-27.371 11.38-8.728 24.62-14.777 39.71-18.149-9.06-5.356-16.95-10.612-23.69-15.769-6.5-5.157-12.77-11.306-18.8-18.446-6.04-7.339-10.57-15.769-13.59-25.289-3.02-9.719-4.41-20.43-4.18-32.133.7-31.14 14.05-55.239 40.06-72.297s62.58-25.587 109.72-25.587c21.36 0 40.87 2.38 58.52 7.141 17.64 4.562 32.04 10.71 43.19 18.446 11.14 7.735 19.74 16.463 25.77 26.182 6.04 9.52 8.94 19.438 8.71 29.752a66.829 66.829 0 0 1-3.83 20.231c-2.09 6.546-5.69 13.091-10.8 19.637-4.87 6.545-11.72 12.991-20.55 19.338-8.82 6.149-19.39 11.901-31.7 17.257 12.78 6.347 23.57 12.396 32.4 18.148 9.05 5.752 17.76 12.496 26.12 20.232 8.59 7.537 14.98 15.967 19.16 25.289 4.41 9.322 6.62 19.438 6.62 30.347 0 23.603-7.08 43.537-21.25 59.802-14.16 16.264-33.21 28.165-57.12 35.702-23.69 7.537-51.32 11.306-82.9 11.306Z"/>
    <path fill="#fff" d="M2253.14 890c-21.83 0-43.89-3.074-66.18-9.223-22.29-6.347-36.57-12.496-42.84-18.446l9.05-47.901c7.9 6.545 21.02 12.198 39.36 16.958 18.58 4.761 37.51 7.141 56.78 7.141 13.93 0 23.45-1.488 28.56-4.463 5.34-2.975 8.01-7.14 8.01-12.496 0-5.157-4.64-9.719-13.93-13.686-9.29-4.165-24.38-8.925-45.28-14.281-54.11-13.884-81.16-42.644-81.16-86.281 0-17.851 6.04-33.124 18.11-45.818 12.08-12.892 27.52-22.215 46.33-27.967 18.81-5.752 39.82-8.628 63.05-8.628 39.7 0 68.96 6.248 87.77 18.744l6.27 5.058-15.32 42.545c-15.33-12.892-36.46-19.339-63.4-19.339-22.06 0-33.09 5.554-33.09 16.662 0 3.173.81 5.851 2.44 8.033 1.63 1.983 4.3 3.768 8.01 5.355 3.95 1.388 7.78 2.578 11.5 3.57 3.71.794 8.94 1.984 15.67 3.57 6.73 1.389 12.54 2.678 17.42 3.868 27.17 7.736 46.9 18.645 59.21 32.727 12.31 14.083 18.46 31.637 18.46 52.662 0 61.091-44.93 91.636-134.8 91.636Zm272.51-6.248H2412.8V547.256l-20.9-10.711v-27.669L2503.71 494h22.64v175.24l4.18-4.463c2.78-3.174 6.85-6.942 12.19-11.306 5.57-4.364 11.73-8.628 18.46-12.793 6.73-4.364 14.75-8.033 24.03-11.009 9.52-3.173 18.81-4.76 27.87-4.76 31.81 0 54.22 7.438 67.23 22.314 13.23 14.876 19.85 39.769 19.85 74.678v5.355c-.23 2.38-.35 4.265-.35 5.653v150.843h-114.94V724.281c.69-18.645-8.6-27.967-27.87-27.967-1.86 0-3.72.099-5.57.298-1.63.198-3.37.694-5.23 1.487-1.86.794-3.37 1.389-4.53 1.785-.93.397-2.43 1.19-4.52 2.38-1.86 1.191-3.14 1.984-3.84 2.381-.46.396-1.85 1.388-4.18 2.975-2.09 1.587-3.25 2.479-3.48 2.678v173.454Zm387.88-39.57c-1.39 2.777-4.3 6.446-8.71 11.008-4.18 4.562-9.75 9.62-16.72 15.174-6.96 5.355-15.56 9.917-25.77 13.686-10.22 3.967-20.55 5.95-31 5.95-32.75 0-56.2-8.331-70.36-24.992-13.94-16.661-20.9-44.429-20.9-83.305V675.785l-12.19-10.711V630.86h126.44v169.586c-.24 8.926 1.5 15.571 5.22 19.934 3.72 4.166 10.45 6.248 20.2 6.248h3.83c1.17-.198 2.33-.397 3.49-.595a60.87 60.87 0 0 1 2.78-.892c.93-.199 1.98-.496 3.14-.893a78.688 78.688 0 0 0 2.79-1.488c.69-.396 1.62-.892 2.78-1.487 1.16-.794 1.98-1.389 2.44-1.785.7-.397 1.63-.992 2.79-1.785 1.39-.992 2.44-1.686 3.13-2.083V675.785l-18.81-10.711V630.86h132.71v252.892h-96.48l-10.8-39.57Zm315.78 39.57h-106.24l-88.82-252.892h125.74l42.15 161.256 31.7-110.678-16.38-50.578h120.52l35.53 161.256 47.02-161.256h74.55l-89.17 252.892h-105.89l-34.14-104.132-36.57 104.132Zm441.76-153.818c0-25.19-1.51-43.041-4.53-53.554-3.01-10.512-8.59-15.768-16.72-15.768-6.96 0-12.65 1.091-17.06 3.272-4.41 1.984-7.67 5.257-9.76 9.818a47.508 47.508 0 0 0-4.18 13.686c-.46 4.562-.69 10.414-.69 17.554v24.992h52.94ZM3643.21 890c-26.01 0-48.65-3.372-67.93-10.116-19.04-6.743-34.13-16.165-45.28-28.264-10.91-12.099-18.92-25.686-24.03-40.76-5.11-15.273-7.66-32.232-7.66-50.876 0-44.43 13.23-78.05 39.7-100.86 26.48-22.81 63.51-34.215 111.12-34.215 45.74 0 78.49 9.223 98.22 27.67 19.74 18.247 29.61 47.702 29.61 88.363v33.025h-159.18v5.653c0 11.702 1.39 21.322 4.18 28.859 3.02 7.538 7.31 13.091 12.89 16.662 5.57 3.57 11.26 5.95 17.06 7.14 5.81 1.19 12.89 1.785 21.25 1.785 8.13 0 16.84-.892 26.13-2.678 9.52-1.785 19.04-4.562 28.56-8.33 9.75-3.769 17.88-8.232 24.38-13.389l20.55 30.05c-8.59 11.901-21.25 21.917-37.96 30.05-16.49 7.934-32.4 13.289-47.72 16.066-15.33 2.777-29.96 4.165-43.89 4.165Zm171.48-6.248V691.256l-20.89-11.008v-31.835l74.88-17.553h58.17v252.892h-112.16Zm50.51-280.264-57.12-49.091v-10.414l57.12-48.793h13.24l59.56 48.793v10.414l-59.56 49.091h-13.24Z"/>
  </g>
  <defs>
    <filter id="a" width="2469" height="404" x="1473" y="494" color-interpolation-filters="sRGB" filterUnits="userSpaceOnUse">
      <feFlood flood-opacity="0" result="BackgroundImageFix"/>
      <feColorMatrix in="SourceAlpha" result="hardAlpha" values="0 0 0 0 0 0 0 0 0 0 0 0 0 0 0 0 0 0 127 0"/>
      <feOffset dy="4"/>
      <feGaussianBlur stdDeviation="2"/>
      <feComposite in2="hardAlpha" operator="out"/>
      <feColorMatrix values="0 0 0 0 0 0 0 0 0 0 0 0 0 0 0 0 0 0 0.25 0"/>
      <feBlend in2="BackgroundImageFix" result="effect1_dropShadow_25_5"/>
      <feBlend in="SourceGraphic" in2="effect1_dropShadow_25_5" result="shape"/>
    </filter>
  </defs>
</svg>
